<svg xmlns="http://www.w3.org/2000/svg" viewBox="0 0 220 220" width="220" height="220" fill="none"><g transform="translate(20.5,9.5)"><path d="M99.4209 2.65851C100.114 2.29923 100.657 2.26306 100.703 3.48558C102.439 2.09909 103.964 3.27339 105.665 3.55551C105.511 4.66712 103.916 5.09633 104.558 6.56963C105.039 6.77941 105.674 7.05188 106.302 7.33642C107.594 7.94165 108.029 8.91581 107.579 10.3071C107.066 11.7618 106.901 13.3172 107.098 14.8476C108.508 13.9747 107.478 12.7208 107.995 11.6743L109.679 12.1566C109.523 13.5214 109.357 14.7752 109.246 16.0315C109.149 16.7251 109.137 17.428 109.21 18.1245C110.983 29.3419 110.946 40.5905 109.931 51.8826C109.539 56.2832 109.352 60.7055 109.08 65.1158C109.049 65.6269 109.049 66.143 109.058 66.6542C109.078 67.5777 109.52 68.0744 110.48 68.0768C111.757 68.0768 113.039 68.1684 114.314 68.1154C120.701 67.8533 127.098 67.929 133.478 68.3421C135.963 68.5012 138.435 68.8436 140.915 69.1113C141.155 69.1378 141.483 69.133 141.651 69.2776C143.094 70.5315 144.874 70.3362 146.562 70.4833C151.014 70.8908 155.461 71.238 159.923 71.6504C161.698 71.8143 163.471 72.0458 165.231 72.3303C166.232 72.4919 167.194 72.9693 168.194 73.0417C170.159 73.1863 172.136 73.1719 174.111 73.1791C175.054 73.1791 175.999 73.0875 176.889 73.0393C177.642 74.9442 177.625 76.7526 177.498 78.6117C177.233 82.5036 177.041 86.3994 176.923 90.2993C176.814 93.6751 176.836 97.0364 176.8 100.405C176.8 100.726 176.867 101.078 176.759 101.369C175.915 103.54 176.444 105.787 176.389 108.003C176.333 110.173 176.196 112.331 176.629 114.497C176.853 115.589 176.148 116.334 175.008 116.44C173.928 116.539 172.844 116.5 171.752 116.544C160.253 117.004 148.754 117.466 137.254 117.93C135.4 118.003 133.545 118.01 131.693 118.097C130.893 118.133 130.099 118.299 128.836 118.468C129.596 119.329 130.039 119.898 130.556 120.397C131.73 121.554 133.026 122.599 134.103 123.835C136.706 126.825 139.205 129.907 141.766 132.933C142.091 133.314 142.55 133.577 142.928 133.915C144.116 134.973 145.417 135.938 146.454 137.129C148.237 139.225 150.249 141.114 152.453 142.759C153.427 143.483 154.268 144.375 155.156 145.204C155.805 145.81 156.433 146.434 157.321 146.914L156.727 145.313C157.532 144.785 157.96 145.349 158.391 145.776C161.623 148.971 164.827 152.19 168.074 155.366C170.133 157.38 172.226 159.359 174.354 161.302C175.014 161.897 175.476 162.682 175.677 163.549C176.03 164.9 176.685 166.168 177.199 167.475C177.575 168.44 177.976 169.373 178.286 170.349C178.669 171.555 178.464 172.008 177.372 172.486C173.099 174.352 168.815 176.189 164.279 177.347C164.156 177.378 163.973 177.347 163.908 177.414C162.465 179.119 160.173 178.786 158.376 179.686C156.58 180.585 154.783 181.321 152.991 182.15C150.639 183.24 148.159 184.139 145.99 185.526C144.126 186.712 142.105 187.074 140.097 187.658C139.135 187.935 138.63 187.342 138.106 186.835C135.518 184.356 132.903 181.899 130.424 179.317C126.611 175.345 122.857 171.319 119.163 167.241C113.294 160.731 106.656 154.927 101.232 148.006C100.919 147.608 100.587 147.223 100.111 146.649C99.4834 147.343 99.0192 147.753 98.6825 148.247C96.6694 151.213 94.6851 154.201 92.6864 157.169C89.9044 161.312 87.1176 165.454 84.326 169.595C81.1319 174.313 78.0317 179.102 74.6813 183.708C71.783 187.689 68.6467 191.499 65.5007 195.282C64.1178 196.948 62.451 198.376 60.7866 200.04C59.7427 198.405 58.3333 200.22 57.0658 199.403C57.0658 199.07 57.0658 198.667 57.0658 198.238C56.426 198.277 55.6972 198.626 55.755 197.619L52.965 198.159C53.1502 197.361 53.2728 196.835 53.446 196.104C52.0294 196.587 51.1034 196.126 50.2014 195.166C49.3452 194.257 46.4253 193.04 45.2131 192.755C44.8427 192.663 44.3617 192.632 44.1428 192.384C42.8416 190.906 40.9295 190.549 39.3325 189.613C38.1467 188.916 37.0596 188.407 35.8666 189.401C35.0849 188.75 35.1956 188.222 35.7271 187.542C36.7247 186.265 37.6062 184.901 38.3608 183.467C37.8557 183.922 37.3554 184.383 36.8455 184.834C36.1239 185.47 35.4144 186.119 34.6808 186.727C33.7188 187.518 33.5697 187.426 32.7182 186.445C32.2637 185.919 31.5854 185.591 30.7821 185.386C30.5896 184.87 30.3996 184.354 30.1158 183.597L27.3258 185.439C27.6914 184.026 27.9512 183.028 28.2566 181.837L27.4148 181.019C27.6193 180.537 27.8309 180.031 28.0402 179.529L27.7997 179.261L24.8437 181.029C24.3627 180.158 24.3747 179.327 24.9712 178.569C27.0083 175.987 27.5615 172.577 29.719 170.065C29.8705 169.886 29.9018 169.602 30.0533 169.189L26.6211 167.321C26.2748 166.115 25.8563 164.668 25.344 162.913L23.0927 164.796C23.4174 163.832 23.4776 163.178 23.8143 162.737C25 161.22 25.4979 159.238 27.2705 158.078C27.9921 157.596 28.2326 156.47 28.8074 155.71C29.7863 154.394 31.1741 153.355 31.3785 151.539C31.417 151.206 31.7706 150.89 32.0207 150.603C37.4692 144.379 42.9137 138.165 48.3543 131.962C51.9885 127.829 55.6612 123.729 59.3122 119.611C59.5527 119.331 59.7548 119.006 59.9929 118.68C59.406 117.913 58.6652 118.167 58.0134 118.183C53.155 118.302 48.2941 118.622 43.4405 118.528C37.1197 118.406 30.8029 118.101 24.4901 117.614C18.761 117.183 13.0559 116.544 7.28834 116.713C5.55902 116.761 3.81527 116.23 1.99696 115.818C3.73109 115.121 3.65893 113.631 3.75033 112.266C3.73334 111.848 3.56189 111.451 3.2693 111.152C2.30723 110.127 2.1533 109.905 3.09132 108.755C4.02933 107.605 3.79843 106.344 3.85135 105.097C3.87299 104.589 3.43044 104.061 3.19955 103.542C4.20731 102.206 4.20731 102.206 2.7618 100.13C3.14423 99.4477 3.96439 98.734 2.84839 97.7646C3.09632 97.6063 3.33046 97.4272 3.5483 97.2293C4.48872 96.1708 5.01305 95.117 4.1063 93.6727C3.62526 92.9083 3.56032 91.8787 3.32221 90.9648C3.25968 90.7237 3.12258 90.3813 3.22841 90.2197C4.58974 88.1339 3.01675 86.3616 2.70408 84.4326C2.53091 83.3692 1.67226 82.2624 2.72332 81.1267C2.87485 80.9652 2.58863 80.3189 2.40824 79.9404C2.14901 79.3712 1.83143 78.8305 1.46061 78.3272C0.397522 76.948 0.154597 75.5253 0.803994 73.8567C1.03249 73.2707 0.772726 72.4943 0.724623 71.5949C2.32647 70.7196 3.91388 69.8057 5.95828 70.7726C6.54274 71.0499 7.33885 70.9848 8.02673 70.927C13.1209 70.4905 18.2126 69.9914 23.3068 69.567C29.6757 69.0341 36.0542 68.5639 42.4207 68.0431C48.6645 67.5335 54.9084 67.0062 61.1522 66.4613C63.2062 66.2828 63.4636 66.0248 63.4972 63.9993C63.5598 60.2835 63.4972 56.5653 63.6319 52.8519C63.7522 49.5243 64.0648 46.2064 64.2981 42.8837C64.5964 38.6036 64.683 34.2922 65.2602 30.0508C65.8928 25.3873 65.6066 20.7311 65.7412 16.0653C65.7557 15.583 65.5993 14.9633 66.4363 15.0284C66.7995 13.9602 67.9781 13.4756 68.12 12.1349C68.4038 9.40048 68.678 6.69019 68.3821 3.9365C68.3485 3.63026 68.5673 3.2975 68.9089 3.03226C68.8872 3.38913 68.8632 3.75565 68.8391 4.10529C68.9498 4.08117 69.1301 4.086 69.1446 4.03536C69.2673 3.51652 69.4868 3.02564 69.7916 2.58859C69.8998 2.99609 70.0056 3.4036 70.1187 3.8304C70.2822 3.74118 70.453 3.70019 70.465 3.63267C70.5155 3.31921 70.4866 2.99127 70.5492 2.68263C70.7584 1.65059 71.1168 1.47698 72.1655 1.85314C72.4541 1.95683 72.7331 2.09427 73.1468 2.26065C73.6879 0.799408 75.0709 0.963376 76.1075 0.444948C77.7743 -0.382124 78.2313 1.01642 79.3184 1.51556C80.1434 0.237578 81.1704 0.0277951 82.5029 0.886214C83.0176 1.21656 84.2178 0.9899 84.3404 1.31301C84.6074 2.00988 84.3934 2.89723 84.3404 3.70501C84.3404 3.86657 84.1745 4.01848 83.9869 4.34159C83.7464 3.90274 83.5972 3.58445 83.4241 3.27339C83.2725 3.00092 83.1066 2.73567 82.943 2.44632C81.1247 3.42771 82.0026 5.33987 81.4182 6.76494C80.1146 6.15971 81.1776 4.41152 79.6071 3.77012C79.5349 6.10907 78.1135 8.24065 79.8211 10.4253C80.0616 10.7363 80.129 11.2258 80.1747 11.6454C80.3695 13.4153 80.5186 15.19 80.7014 16.9502C80.7287 17.2059 80.8108 17.4526 80.9419 17.6736C81.3725 18.3777 82.2624 18.3536 82.6256 17.6133C82.7682 17.2572 82.8574 16.8817 82.8901 16.4993C82.923 16.1692 82.9374 15.8376 82.9334 15.5059C83.7103 17.2589 84.4343 17.9726 85.1318 17.5989C86.2405 17.0057 85.7763 15.911 85.7451 15.0019C85.7138 14.0374 85.5046 13.0946 85.4132 12.1373C85.3675 11.655 85.4132 11.1728 85.4132 10.6905C86.3488 10.5748 86.6157 10.9823 86.6927 11.655C86.7961 12.675 86.8875 13.6974 87.027 14.7126C87.1449 15.5879 87.3229 16.4535 87.4648 17.2709C89.4394 17.5458 89.8026 17.3384 89.6294 15.6481C89.4202 13.478 88.9896 11.3488 88.6265 9.00262L87.6019 9.50899L87.3878 8.4215C88.9656 8.02846 90.4111 7.53897 91.9143 8.39738C92.1548 8.53242 92.6744 8.35157 92.9726 8.15626C93.7267 7.68237 94.4564 7.17052 95.1589 6.62267C95.9502 6.01503 95.8276 5.20966 95.64 4.3223C94.6779 4.4067 93.9275 4.66712 93.6557 5.59305C93.3093 6.777 92.4988 6.99884 91.2505 6.7987C91.1639 6.22722 91.0557 5.61234 90.9811 4.99505C90.6155 1.95924 91.0292 2.25342 93.5258 1.28649L94.3893 3.62785L95.1878 1.76634L97.2731 1.9086C97.2282 3.35538 97.1809 4.86163 97.1311 6.42736C99.6614 7.75598 101.393 6.93373 101.444 4.19933C100.869 3.61097 99.3848 4.03295 99.469 2.59582L99.4209 2.65851ZM100.082 14.9223C100.081 14.7306 100.069 14.5391 100.049 14.3484C99.8827 13.2151 99.3583 12.7642 98.264 12.7956C97.2875 12.8245 96.8882 13.232 96.857 14.4256C96.8176 15.448 96.8578 16.4719 96.9772 17.4879C97.0999 18.438 97.783 18.6237 98.6488 18.1776C100.029 17.4638 100.138 16.2413 100.082 14.9223ZM72.6152 12.6196L73.0337 12.5713L72.5743 3.92203C71.6532 6.87104 72.0139 9.75253 72.6152 12.6196ZM70.578 5.7305L70.1139 5.78596L70.8546 12.7787L70.9509 12.7666L70.578 5.7305ZM74.2171 10.529C75.0878 9.04602 74.7582 7.63542 73.991 6.24169L74.2171 10.529ZM78.4357 17.0129C78.7845 15.5903 78.5825 14.1845 78.0365 12.5207C77.5579 14.2448 77.5747 14.4618 78.4357 17.0129ZM104.7 14.2689C106.357 13.4105 106.345 13.3044 104.563 11.6502L104.7 14.2689ZM75.5495 9.41013L75.8045 9.37637L75.5375 4.33677L75.2802 4.35124L75.5495 9.41013ZM69.4645 6.35743L69.1638 6.38396C69.252 7.31471 69.3442 8.23904 69.4404 9.15694L69.6136 9.14247L69.4645 6.35743ZM105.467 10.2396C105.506 10.3481 105.542 10.459 105.581 10.5675L106.466 10.2517C106.432 10.1456 106.401 10.0371 106.367 9.93096L105.467 10.2396Z" fill="#FF5820"></path></g></svg>