<svg width="22" height="22" viewBox="0 0 22 22" fill="none" xmlns="http://www.w3.org/2000/svg">
<path d="M16 1H6C3.23858 1 1 3.23858 1 6V16C1 18.7614 3.23858 21 6 21H16C18.7614 21 21 18.7614 21 16V6C21 3.23858 18.7614 1 16 1Z" stroke="white" stroke-width="2" stroke-linecap="round" stroke-linejoin="round"/>
<path d="M14.9997 10.4133C15.1231 11.2455 14.981 12.0955 14.5935 12.8423C14.206 13.5891 13.5929 14.1947 12.8413 14.5729C12.0898 14.9512 11.2382 15.0829 10.4075 14.9492C9.57683 14.8155 8.80947 14.4234 8.21455 13.8284C7.61962 13.2335 7.22744 12.4661 7.09377 11.6355C6.96011 10.8048 7.09177 9.95316 7.47003 9.20164C7.84829 8.45012 8.45389 7.83701 9.20069 7.44951C9.94749 7.06201 10.7975 6.91986 11.6297 7.04327C12.4786 7.16915 13.2646 7.56473 13.8714 8.17158C14.4782 8.77842 14.8738 9.56435 14.9997 10.4133Z" stroke="white" stroke-width="2" stroke-linecap="round" stroke-linejoin="round"/>
</svg>
