<svg width="178" height="43" viewBox="0 0 178 43" fill="none" xmlns="http://www.w3.org/2000/svg">
<path d="M19.3526 0.516407C19.4882 0.440141 19.5947 0.432514 19.6035 0.690867C19.9424 0.398195 20.2408 0.64606 20.5718 0.70612C20.5419 0.940639 20.2302 1.0312 20.3561 1.34199C20.4486 1.38584 20.5736 1.43732 20.6968 1.50406C20.9485 1.6318 21.0339 1.83772 20.9468 2.13135C20.846 2.43652 20.8134 2.76323 20.8517 3.08468C21.1264 2.90068 20.9257 2.63566 21.0278 2.41735L21.3552 2.52507C21.3253 2.81107 21.2927 3.07705 21.2672 3.34303C21.2486 3.48965 21.2462 3.63815 21.2602 3.78537C21.607 6.15344 21.5999 8.52819 21.4028 10.9106C21.3262 11.8401 21.2901 12.7734 21.2364 13.7048C21.2302 13.8125 21.2302 13.9212 21.232 14.0298C21.232 14.2205 21.32 14.3292 21.5102 14.3301C21.7602 14.3301 22.0101 14.3492 22.2593 14.3378C23.5077 14.2831 24.7579 14.299 26.0048 14.3854C26.4907 14.4188 26.9731 14.4913 27.4581 14.5475C27.5084 14.5451 27.5583 14.5577 27.6025 14.5837C27.8833 14.8478 28.2328 14.8068 28.5629 14.8392C29.4326 14.926 30.304 14.9994 31.1737 15.0861C31.5206 15.1214 31.8674 15.17 32.2116 15.2301C32.407 15.2644 32.5954 15.3645 32.7908 15.3807C33.1746 15.4112 33.561 15.4074 33.9466 15.4093C34.1314 15.4093 34.3163 15.3893 34.4897 15.3798C34.6376 15.7763 34.6376 16.1577 34.6121 16.5514C34.5604 17.3732 34.5232 18.1959 34.5003 19.0196C34.4791 19.7298 34.4835 20.4419 34.4756 21.1531C34.4837 21.2202 34.4811 21.2882 34.4677 21.3543C34.3031 21.8147 34.407 22.2876 34.3955 22.7547C34.3841 23.2218 34.3586 23.669 34.4448 24.1266C34.4879 24.3573 34.3506 24.5136 34.1279 24.5365C33.9052 24.5594 33.7036 24.5489 33.4915 24.5584C31.2433 24.6557 28.9957 24.7532 26.7486 24.8511C26.3868 24.8663 26.0233 24.8673 25.6615 24.8864C25.5048 24.894 25.3499 24.9283 25.1034 24.9645C25.2522 25.1466 25.3393 25.2667 25.4397 25.3735C25.6685 25.6176 25.9221 25.8378 26.1324 26.099C26.6412 26.7311 27.1298 27.3812 27.6289 28.02C27.7001 28.0947 27.776 28.1642 27.856 28.2278C28.0884 28.4509 28.3428 28.6549 28.5453 28.9065C28.8936 29.3493 29.2869 29.7481 29.7178 30.0954C29.9031 30.2558 30.0795 30.428 30.2459 30.6111C30.3732 30.7526 30.5181 30.8742 30.6764 30.9724C30.6385 30.8628 30.6007 30.7531 30.5602 30.634C30.7178 30.5224 30.8014 30.6416 30.8859 30.7293C31.517 31.4033 32.1429 32.083 32.7776 32.7542C33.1808 33.1794 33.5901 33.5969 34.0056 34.0069C34.1336 34.1338 34.2227 34.3001 34.2608 34.4835C34.345 34.7657 34.4443 35.0424 34.5584 35.312C34.6314 35.5131 34.7098 35.7133 34.7705 35.9183C34.8453 36.1719 34.8057 36.2691 34.5945 36.3702C33.7591 36.7639 32.922 37.1519 32.0355 37.3959C32.0118 37.4026 31.9757 37.3959 31.9633 37.4112C31.679 37.7706 31.2327 37.6972 30.8841 37.8879C30.5355 38.0785 30.1799 38.233 29.8278 38.4084C29.3683 38.6391 28.8842 38.8288 28.4599 39.1205C28.0954 39.3703 27.7002 39.4466 27.3076 39.5705C27.121 39.6286 27.0215 39.5038 26.9185 39.397C26.4132 38.8736 25.9018 38.355 25.4168 37.8087C24.6721 36.9711 23.9385 36.1213 23.2161 35.2595C22.0718 33.8839 20.7734 32.6598 19.7118 31.1984C19.6502 31.1145 19.5859 31.0334 19.4926 30.9124C19.3933 31.0186 19.3002 31.1313 19.2135 31.2498C18.8192 31.8752 18.4319 32.5063 18.041 33.1346C17.497 34.0097 16.9524 34.8842 16.4072 35.7581C15.7831 36.7544 15.1749 37.7658 14.5217 38.7382C13.9557 39.5781 13.3422 40.3827 12.7277 41.1835C12.4575 41.5353 12.1318 41.8366 11.8061 42.1874C11.6027 41.8423 11.3272 42.2255 11.079 42.0539V41.807C10.954 41.8156 10.8149 41.8899 10.8228 41.6764L10.2771 41.7908C10.3131 41.6221 10.3369 41.5115 10.3704 41.357C10.094 41.4581 9.91263 41.357 9.73657 41.1587C9.56052 40.9604 8.99803 40.7097 8.76123 40.6468C8.68905 40.6277 8.59486 40.6211 8.55261 40.5686C8.29557 40.2607 7.92146 40.1816 7.61337 39.9909C7.38185 39.8441 7.17323 39.7373 6.93644 39.9461C6.78327 39.8098 6.80528 39.6973 6.90915 39.5543C7.1039 39.2853 7.27622 38.9982 7.42411 38.6963C7.32464 38.7916 7.22693 38.887 7.12746 38.9823C6.98661 39.1167 6.84753 39.253 6.70317 39.3817C6.51391 39.5486 6.48574 39.5295 6.31937 39.3226C6.21713 39.2081 6.0851 39.1299 5.94086 39.0986C5.903 38.9899 5.86603 38.8812 5.81058 38.7173L5.26569 39.1062C5.33699 38.8078 5.38805 38.5943 5.44703 38.3436L5.2833 38.171C5.32291 38.068 5.36428 37.9622 5.40565 37.8564L5.35812 37.8002L4.77714 38.1796C4.72945 38.1017 4.7061 38.0092 4.71054 37.9159C4.71497 37.8225 4.74696 37.7332 4.80179 37.661C5.19967 37.1157 5.30794 36.3959 5.72959 35.8649C5.75959 35.807 5.78182 35.7447 5.79561 35.68L5.12485 35.2853L4.87485 34.3548L4.43472 34.7524C4.4981 34.5503 4.51042 34.4111 4.57732 34.3176C4.80883 33.9973 4.9083 33.5788 5.25249 33.3338C5.39245 33.2385 5.44262 32.9944 5.55266 32.8343C5.74368 32.5559 6.0148 32.3366 6.05529 31.9534C6.06233 31.8828 6.13187 31.8161 6.18117 31.756C7.24336 30.4436 8.30672 29.1315 9.37126 27.8198C10.0816 26.9475 10.7999 26.0818 11.513 25.2124C11.5604 25.1492 11.6048 25.0833 11.6459 25.0151C11.5314 24.8539 11.3871 24.9073 11.2594 24.9102C10.3096 24.9359 9.35982 25.0055 8.41089 24.9836C7.17851 24.9579 5.9391 24.8883 4.7076 24.7929C3.58702 24.6976 2.47172 24.566 1.34498 24.6023C1.00695 24.6128 0.66629 24.5003 0.310661 24.4116C0.648684 24.2638 0.6346 23.9492 0.653086 23.6613C0.64919 23.573 0.615702 23.4893 0.558897 23.4259C0.37052 23.2095 0.34059 23.1627 0.523686 22.9206C0.706782 22.6785 0.661888 22.4096 0.672452 22.1484C0.672452 22.0407 0.589706 21.9291 0.544813 21.8195C0.741993 21.5335 0.741993 21.5335 0.456786 21.0988C0.531609 20.9548 0.692698 20.8042 0.473511 20.5992C0.52177 20.5659 0.567405 20.5282 0.609952 20.4867C0.793928 20.2627 0.89692 20.0406 0.719106 19.7355C0.625797 19.5744 0.612593 19.3542 0.565939 19.1635C0.553615 19.1111 0.527207 19.0396 0.547453 19.0053C0.811534 18.5648 0.506081 18.1902 0.445342 17.785C0.411892 17.561 0.243761 17.3255 0.445342 17.0872C0.475271 17.0529 0.418934 16.9165 0.383723 16.8374C0.333539 16.7168 0.271567 16.6024 0.198867 16.4961C0.0974596 16.3679 0.031585 16.2113 0.00884487 16.0443C-0.0138952 15.8773 0.00742607 15.7067 0.0703482 15.5523C0.115242 15.4284 0.0641861 15.2663 0.0553835 15.0757C0.367879 14.8907 0.678613 14.6943 1.07737 14.9021C1.20786 14.9487 1.34691 14.9598 1.4823 14.9346C2.47788 14.8392 3.47258 14.7372 4.46905 14.6486C5.71375 14.5361 6.95933 14.4369 8.20403 14.3263C9.42525 14.2189 10.6459 14.1077 11.8659 13.9927C12.2673 13.9555 12.3175 13.8973 12.3237 13.4731C12.3369 12.6885 12.3237 11.903 12.3501 11.1193C12.3739 10.4167 12.4381 9.71603 12.4804 9.01438C12.5393 8.11063 12.5561 7.20306 12.6687 6.30502C12.7929 5.32023 12.7365 4.33735 12.7647 3.3497C12.7647 3.24865 12.7365 3.11709 12.9003 3.13044C12.9716 2.90545 13.2013 2.80344 13.2286 2.51935C13.2841 1.94735 13.3377 1.36964 13.2797 0.790013C13.281 0.751496 13.291 0.713929 13.309 0.680661C13.327 0.647392 13.3523 0.619458 13.3826 0.599347C13.3782 0.67466 13.3738 0.749973 13.3686 0.825286C13.3906 0.825286 13.4258 0.825286 13.4284 0.810986C13.4527 0.701323 13.4957 0.597537 13.5552 0.504968L13.6194 0.767133C13.6511 0.748067 13.6846 0.739486 13.6863 0.725186C13.6969 0.659407 13.6907 0.589814 13.7031 0.524987C13.7444 0.306675 13.814 0.269495 14.0191 0.349575C14.0754 0.371502 14.13 0.399148 14.211 0.435375C14.3166 0.126496 14.586 0.161769 14.7902 0.054043C15.1159 -0.120416 15.2048 0.174162 15.4169 0.279982C15.578 0.0101898 15.7796 -0.0336633 16.0393 0.147469C16.1405 0.217062 16.3747 0.169396 16.3993 0.237082C16.4513 0.384848 16.409 0.571701 16.3993 0.742346C16.3993 0.776666 16.3659 0.809079 16.3298 0.876766C16.2849 0.781433 16.2532 0.716606 16.2197 0.65178C16.1863 0.586954 16.1581 0.537381 16.1247 0.476368C15.7726 0.684193 15.9407 1.08841 15.8263 1.3887C15.5719 1.26096 15.7805 0.892019 15.4742 0.756647C15.4601 1.24952 15.1819 1.70044 15.5164 2.1609C15.5592 2.23928 15.5829 2.32821 15.5851 2.41925C15.6229 2.79296 15.652 3.16762 15.6881 3.54132C15.694 3.59532 15.7105 3.64733 15.7365 3.69385C15.752 3.72741 15.7761 3.75542 15.8059 3.77454C15.8357 3.79366 15.87 3.80308 15.9046 3.80167C15.9392 3.80027 15.9728 3.78809 16.0012 3.76661C16.0296 3.74512 16.0517 3.71523 16.0648 3.68051C16.0925 3.60547 16.11 3.52647 16.1168 3.44599C16.1256 3.38498 16.122 3.32205 16.1256 3.23626C16.277 3.60615 16.4187 3.75677 16.5551 3.67765C16.7717 3.55276 16.681 3.32015 16.6748 3.12853C16.6687 2.93691 16.6282 2.72622 16.6097 2.52412C16.6009 2.42879 16.6097 2.32297 16.6097 2.21905C16.7928 2.19427 16.8465 2.28102 16.8597 2.42116C16.8799 2.63661 16.8976 2.85206 16.9248 3.06656C16.9486 3.25151 16.9829 3.43455 17.0129 3.6071C17.3984 3.66525 17.4697 3.62045 17.4372 3.2639C17.3967 2.80821 17.313 2.35633 17.2409 1.8606L17.041 1.96833C17.027 1.89016 17.0137 1.81866 16.9997 1.73858C17.3078 1.65564 17.5903 1.55268 17.8799 1.73286C17.9266 1.76146 18.0278 1.72332 18.0868 1.68519C18.2341 1.58511 18.3766 1.47693 18.5137 1.36106C18.6687 1.23331 18.6449 1.06267 18.6079 0.875813C18.4213 0.892973 18.2734 0.948266 18.2206 1.1437C18.1519 1.39347 17.9935 1.44114 17.7488 1.39538C17.732 1.27526 17.7109 1.1456 17.696 1.01405C17.6247 0.373408 17.7056 0.435375 18.1933 0.230409C18.2426 0.374361 18.2919 0.516407 18.3623 0.725186C18.4275 0.562167 18.4724 0.449674 18.5181 0.332415L18.9257 0.361968C18.9169 0.66894 18.9081 0.986399 18.8984 1.3153C19.3931 1.59558 19.7311 1.42207 19.7417 0.845306C19.629 0.72042 19.3385 0.810033 19.3553 0.505921L19.3526 0.516407ZM19.4811 3.10565C19.4811 3.06466 19.4811 3.02462 19.4741 2.98458C19.4415 2.74529 19.3394 2.64996 19.122 2.65663C18.931 2.66235 18.8526 2.75196 18.8473 3.00078C18.8395 3.21655 18.8472 3.43265 18.8702 3.64714C18.8949 3.84734 19.0278 3.88738 19.1968 3.793C19.4715 3.64237 19.497 3.38307 19.4811 3.10565ZM14.1115 2.61945L14.1934 2.60896L14.1053 0.781433C13.9249 1.40586 13.9953 2.01409 14.1133 2.6204L14.1115 2.61945ZM13.7136 1.16467L13.6256 1.17611L13.77 2.65091H13.7893L13.7136 1.16467ZM14.4249 2.17806C14.5948 1.86441 14.5305 1.56602 14.38 1.2724L14.4249 2.17806ZM15.2479 3.54704C15.3166 3.24674 15.277 2.95026 15.1705 2.59371C15.0789 2.96265 15.0824 3.00841 15.2497 3.54704H15.2479ZM20.3825 2.96742C20.7065 2.78628 20.7047 2.76531 20.3561 2.41449L20.3825 2.96742ZM14.6863 1.94163L14.7365 1.93496L14.6846 0.870093H14.6335L14.6863 1.94163ZM13.498 1.29718L13.439 1.3029C13.4566 1.49357 13.4751 1.69282 13.4927 1.88825H13.5261L13.498 1.29718ZM20.5348 2.11705L20.5559 2.18569L20.732 2.11895C20.7258 2.09703 20.7188 2.07415 20.7126 2.05127L20.5348 2.11705Z" fill="#272137"/>
<path d="M85.5575 33.2682C85.5426 33.2729 85.527 33.2745 85.5115 33.2726C85.496 33.2708 85.4811 33.2657 85.4675 33.2575C85.4539 33.2493 85.4419 33.2383 85.4323 33.2251C85.4226 33.2119 85.4155 33.1967 85.4114 33.1804C85.5489 32.9954 85.6285 32.7676 85.6385 32.5303C85.6593 32.2493 85.6484 31.9666 85.6059 31.6885C85.5585 31.3816 85.4655 31.0851 85.3304 30.8105C85.1995 30.5324 85.03 30.2778 84.8278 30.0554C84.3301 30.009 83.9466 29.968 83.6773 29.9325C83.4061 29.8972 83.1421 29.8505 82.885 29.7923C82.628 29.7342 82.3393 29.6636 82.0259 29.5816C81.7125 29.4996 81.275 29.391 80.7134 29.248C80.1518 29.105 79.7134 28.9848 79.4 28.879C79.1002 28.78 78.8077 28.6567 78.5251 28.5101C78.2287 28.3545 77.9418 28.1787 77.6659 27.9838C77.3631 27.7728 76.9523 27.4919 76.4335 27.1411C76.4547 27.0238 76.4283 26.9657 76.3526 26.9657C76.2768 26.9657 76.239 26.919 76.239 26.8256C77.0218 26.471 77.8231 26.166 78.6386 25.9123C79.496 25.643 80.3311 25.2964 81.135 24.876C81.8819 24.4909 82.5576 23.9614 83.1289 23.3135C83.6799 22.6818 83.9877 21.8508 84.0523 20.8205C84.0738 20.6929 84.0738 20.5621 84.0523 20.4344C84.0305 20.3393 84.0035 20.2457 83.9713 20.1542C83.9405 20.07 83.9241 19.9806 83.9229 19.8901C83.9271 19.7871 83.9492 19.6858 83.988 19.5917C83.8124 19.2353 83.6606 18.8657 83.5338 18.4858L83.1412 17.3275C83.0162 16.9548 82.8692 16.5911 82.701 16.2388C82.5408 15.9024 82.3269 15.5993 82.069 15.3437V14.9185C81.9161 14.8172 81.7691 14.7058 81.6289 14.5848C81.4929 14.4679 81.3453 14.3678 81.1887 14.2864C80.8556 13.7154 80.4101 13.231 79.8842 12.8679C79.356 12.5056 78.8751 12.1487 78.4414 11.7973C77.5981 11.8907 76.901 12.1834 76.3499 12.6753C75.7915 13.1749 75.2858 13.7399 74.842 14.3598C74.389 14.9954 73.9459 15.6452 73.5128 16.3094C73.0984 16.9556 72.5956 17.5297 72.0216 18.012C71.9565 17.8481 71.7787 17.7136 71.4864 17.6078C71.2333 17.507 70.9609 17.4768 70.6942 17.5201C70.469 18.0626 70.2947 18.6282 70.1739 19.2085C70.0437 19.818 69.9193 20.4383 69.8007 21.0694C69.6822 21.7005 69.5516 22.3376 69.409 22.9808C69.276 23.5897 69.107 24.1887 68.9028 24.774C68.8453 24.5142 68.8354 24.2447 68.8738 23.9808C68.5253 23.8076 68.2072 23.5702 67.9337 23.2792C67.6749 22.9979 67.4152 22.7119 67.1555 22.4212C66.8958 22.1304 66.6273 21.8492 66.3457 21.5784C66.0446 21.2963 65.7056 21.0655 65.3404 20.8939C64.9296 20.6397 64.4865 20.3763 64.0112 20.1036L62.6168 19.3143C62.1626 19.0601 61.7304 18.8023 61.3202 18.5411C60.9598 18.3202 60.6131 18.0741 60.2824 17.8042L57.594 19.7328C57.559 19.9417 57.4933 20.1431 57.3995 20.3296C57.3045 20.5253 57.2493 20.7408 57.2375 20.9616C57.3255 21.0083 57.3836 21.0083 57.4136 20.9616C57.4438 20.92 57.4657 20.8719 57.4778 20.8205C57.4895 20.772 57.506 20.725 57.5271 20.6804C57.5483 20.6337 57.6152 20.6337 57.7217 20.6804C57.7917 20.7298 57.8492 20.7976 57.8887 20.8774C57.9283 20.9572 57.9486 21.0465 57.9479 21.137C57.9467 21.2322 57.9257 21.3258 57.8866 21.4109C57.8474 21.4961 57.791 21.5706 57.7217 21.629C57.7651 22.1902 57.9001 22.6465 58.1266 22.9979C58.3503 23.3457 58.6441 23.6339 58.9857 23.8407C58.8878 23.9692 58.773 24.0816 58.6451 24.1743C58.5042 24.2792 58.4998 24.4022 58.6292 24.5423C58.9309 24.637 59.2765 24.766 59.6662 24.9294L55.7763 26.0352C54.4245 26.4131 53.0477 26.6773 51.6584 26.8256C51.6088 26.844 51.5646 26.8764 51.5304 26.9194C51.4962 26.9625 51.4732 27.0147 51.4638 27.0706C51.4449 27.1832 51.3869 27.2838 51.3019 27.3518C50.5994 27.1893 49.8792 27.136 49.1628 27.1935C48.3967 27.253 47.6278 27.259 46.8609 27.2117C46.8188 27.0963 46.7593 26.9893 46.6849 26.8951C46.6096 26.8019 46.5501 26.6951 46.5088 26.5796C46.9533 25.7523 47.4517 24.9603 48 24.2096C48.5833 23.4025 49.2104 22.6182 49.8811 21.8568C50.5519 21.0954 51.2488 20.3757 51.9718 19.6975C52.6965 19.0187 53.4151 18.3984 54.1275 17.8366C54.8165 17.2929 55.5359 16.7959 56.2816 16.3485C57.0051 15.9157 57.7184 15.5121 58.4215 15.1377L60.4303 14.0605C61.0295 13.7454 61.6088 13.3878 62.1644 12.9899C62.1213 12.7992 62.1265 12.6686 62.1811 12.5866C62.2392 12.4871 62.2675 12.3706 62.2621 12.253C62.2665 12.2196 62.2637 12.1855 62.2538 12.1535C62.244 12.1215 62.2274 12.0924 62.2053 12.0685C62.1833 12.0446 62.1564 12.0266 62.1269 12.016C62.0973 12.0053 62.0658 12.0022 62.035 12.007C62.0041 12.0118 61.9727 12.0087 61.9431 11.9981C61.9135 11.9874 61.8867 11.9694 61.8646 11.9455C61.8426 11.9217 61.826 11.8926 61.8161 11.8606C61.8063 11.8285 61.8035 11.7945 61.8079 11.7611C62.0024 11.7611 62.1001 11.7029 62.1001 11.5856C62.0976 11.454 62.0756 11.3236 62.035 11.1995C61.9949 11.0745 61.9678 10.945 61.954 10.8134C61.9426 10.6962 62.013 10.6371 62.1644 10.6371C62.0317 10.2441 61.8018 9.8981 61.4998 9.63704C61.2082 9.39186 60.8933 9.18095 60.5605 9.00784C60.2249 8.83243 59.9006 8.6567 59.5878 8.48065C59.275 8.3046 59.0212 7.99446 58.8264 7.5502C58.682 7.50279 58.527 7.50916 58.3863 7.56832C58.2454 7.62679 58.0562 7.57404 57.8185 7.41006C57.1169 8.06664 56.3628 8.65431 55.565 9.1661C54.7329 9.70504 53.9063 10.2316 53.0853 10.7458C52.2643 11.2599 51.4762 11.7976 50.7209 12.3588C50.0008 12.8853 49.3468 13.5108 48.7755 14.2197C48.5642 14.2552 48.364 14.3455 48.1919 14.4828C48.0413 14.6114 47.9054 14.7589 47.787 14.9223C47.6696 15.0863 47.5522 15.256 47.4349 15.4314C47.3005 15.6237 47.1424 15.795 46.9648 15.9404C45.7882 16.9331 44.7554 18.1107 43.9006 19.4344C43.0253 20.7942 42.2595 22.233 41.6119 23.7349C41.6582 24.0032 41.647 24.2794 41.5793 24.5423C41.5119 24.7693 41.4789 25.0066 41.4816 25.2449C41.5292 25.2954 41.5843 25.337 41.6445 25.3679C41.7087 25.4032 41.7325 25.4795 41.7087 25.5958C41.8173 28.0547 42.4226 29.9862 43.5247 31.3901C44.6268 32.794 46.1505 33.543 48.0959 33.6371C48.4018 33.6573 48.7086 33.6215 49.0035 33.5313C49.3099 33.4404 49.6259 33.3933 49.9436 33.3911H50.8195C51.2104 33.3871 51.6006 33.3517 51.9867 33.2853C52.0486 33.2417 52.0987 33.1812 52.132 33.1099C52.1645 33.0403 52.235 33.0146 52.3432 33.0403C52.605 33.0203 52.8656 32.9856 53.124 32.9364L53.837 32.7963C54.0747 32.7492 54.3232 32.7139 54.5826 32.6904C54.8467 32.6676 55.1548 32.6552 55.5228 32.6552C56.3661 32.3043 57.2252 31.9942 58.1002 31.7247C58.9752 31.4552 59.8452 31.1978 60.7102 30.9525C61.5746 30.7066 62.4176 30.4492 63.2392 30.1803C64.0375 29.9213 64.8131 29.5863 65.5569 29.1793C66.263 28.7953 66.9221 28.3175 67.5191 27.757C67.9385 27.359 68.3099 26.9055 68.6247 26.407C68.7221 26.6989 68.7435 27.0143 68.6863 27.3184C68.6197 27.6497 68.5378 27.9771 68.4407 28.2994C68.34 28.6449 68.2589 28.9967 68.1977 29.3528C68.1326 29.7272 68.0678 30.1253 68.0032 30.5474C68.0871 30.7064 68.1629 30.8703 68.2303 31.0383C68.2955 31.2023 68.3808 31.2843 68.49 31.2843C68.4484 31.414 68.4373 31.5529 68.4574 31.6885C68.4791 31.7952 68.5061 31.9005 68.5384 32.004C68.5727 32.1188 68.5998 32.2361 68.6194 32.3549C68.6392 32.5145 68.6281 32.6768 68.5868 32.8315C68.8245 32.7845 68.9712 32.843 69.027 33.0069C69.0827 33.1709 69.1314 33.3463 69.1731 33.5332C69.3242 33.5231 69.4753 33.5532 69.6132 33.6209C69.6967 33.6706 69.7757 33.7287 69.8491 33.7944C69.9191 33.8562 69.9953 33.9093 70.0762 33.9526C70.1625 33.999 70.3031 33.999 70.4979 33.9526C70.6243 33.8599 70.7422 33.7542 70.85 33.6371C70.9586 33.5195 71.1531 33.4842 71.4336 33.5313C71.7683 33.0753 72.0462 32.5737 72.2602 32.0393C72.5088 31.3451 72.7201 30.6359 72.8931 29.9153L73.9494 30.9334C74.2524 31.2239 74.5761 31.4879 74.9177 31.7228C75.3258 31.9977 75.7498 32.2439 76.1871 32.4597C76.673 32.7057 77.305 32.9917 78.0832 33.3177C79.6395 33.973 80.9255 34.4236 81.9414 34.6695C82.9572 34.9155 83.8002 34.898 84.4704 34.6171C84.6365 34.6068 84.7954 34.5401 84.9246 34.4264C85.0355 34.3174 85.1334 34.1938 85.216 34.0585C85.3022 33.9174 85.3888 33.7769 85.4757 33.6371C85.561 33.4977 85.6711 33.3781 85.7996 33.2853C85.7206 33.263 85.6385 33.2572 85.5575 33.2682ZM68.6643 26.3384C68.7241 26.2431 68.7831 26.1477 68.8403 26.0438C68.8259 26.113 68.8059 26.1806 68.7805 26.2459C68.7506 26.3155 68.7118 26.346 68.6643 26.3384ZM74.7126 22.2257C74.786 21.7487 74.94 21.2905 75.1668 20.8739C75.376 20.4968 75.6203 20.1439 75.8957 19.8205C76.1656 19.5027 76.4467 19.1926 76.739 18.89C77.0341 18.5805 77.2995 18.2393 77.5312 17.8719C77.942 18.0124 78.3367 18.3047 78.7152 18.749C79.0937 19.1932 79.3261 19.7786 79.4124 20.505C78.6765 20.8329 77.8983 21.178 77.0779 21.5403C76.3221 21.8847 75.5262 22.1153 74.7126 22.2257Z" fill="#272137"/>
<path d="M94.2463 17.257C94.1669 17.0197 94.1177 16.7718 94.1002 16.5201C94.0785 16.2512 94.0676 15.9761 94.0676 15.6945V14.9929C93.8281 14.8737 93.6336 14.6691 93.5166 14.4132C93.4064 14.1614 93.3249 13.896 93.2736 13.6229C93.2191 13.3417 93.1654 13.0614 93.1117 12.7802C93.0561 12.4972 92.9394 12.2326 92.771 12.008C92.4868 11.9989 92.2044 12.0588 91.9444 12.1834C91.7265 12.2943 91.5199 12.4298 91.3283 12.5876C91.1395 12.7441 90.9607 12.9142 90.7931 13.0967C90.6247 13.2795 90.4401 13.4439 90.242 13.5876C90.2879 13.9794 90.2267 14.3772 90.066 14.7316C89.9441 15.0142 89.809 15.2897 89.661 15.5572C89.5527 15.7917 89.5149 15.99 89.5475 16.154C89.5772 16.3659 89.5606 16.5824 89.4991 16.7861C89.4905 16.8409 89.4674 16.8918 89.4325 16.9326C89.3976 16.9734 89.3526 17.0023 89.3028 17.0158C89.2574 17.0254 89.2152 17.0482 89.1809 17.0818C89.1466 17.1154 89.1215 17.1585 89.1082 17.2065C89.0659 17.3825 89.0831 17.5692 89.1566 17.7327C89.2322 17.9207 89.2492 18.1302 89.205 18.3295C89.037 19.2717 88.8042 20.199 88.5088 21.1037C88.2108 22.0171 87.9881 22.9572 87.8433 23.9131C87.7993 24.2801 87.7722 24.6492 87.7623 25.019C87.7517 25.4048 87.7412 25.7861 87.7306 26.163C87.72 26.5399 87.6983 26.9085 87.6655 27.2689C87.6397 27.6002 87.5688 27.9257 87.4551 28.2346C87.5402 28.6331 87.6426 29.0894 87.7623 29.6036C87.882 30.1177 88.0173 30.6386 88.1681 31.1661C88.3189 31.6936 88.4809 32.202 88.654 32.6914C88.7997 33.1261 88.9958 33.5391 89.2376 33.9202C89.6449 33.9916 90.0581 34.0152 90.47 33.9908C90.8719 33.9756 91.2654 33.8615 91.6205 33.6571C91.9598 33.454 92.2319 33.141 92.3987 32.7619C92.5823 32.3647 92.6202 31.8147 92.5122 31.1117C92.319 29.9892 92.2484 28.8459 92.3018 27.7055C92.3558 26.5781 92.4912 25.4571 92.7068 24.3526C92.925 23.2307 93.201 22.1228 93.5333 21.0341C93.8684 19.9346 94.2305 18.8224 94.6196 17.6974C94.5305 17.6596 94.4506 17.6003 94.3859 17.524C94.3212 17.4476 94.2735 17.3563 94.2463 17.257Z" fill="#272137"/>
<path d="M132.001 28.4758C131.756 28.2741 131.49 28.1033 131.209 27.9667C130.938 27.8396 130.662 27.7166 130.382 27.5978C130.057 27.4802 129.754 27.3572 129.474 27.2288C129.144 27.0632 128.847 26.8309 128.599 26.5443C128.512 26.5238 128.423 26.512 128.335 26.5091H128.14C128.032 26.5116 127.924 26.5059 127.816 26.4919C127.751 26.4798 127.61 26.3918 127.395 26.2278C126.749 26.2984 126.047 26.3336 125.287 26.3336C124.38 26.3578 123.467 26.4163 122.548 26.5091C121.662 26.5923 120.799 26.8542 120.003 27.2812C119.741 27.188 119.468 27.1407 119.192 27.1411C118.951 27.1447 118.712 27.1799 118.479 27.246C118.507 26.3084 118.66 25.3802 118.933 24.4899C119.192 23.6828 119.474 22.8696 119.776 22.0503C119.948 21.6054 120.121 21.1545 120.294 20.6976C120.493 20.1271 120.624 19.5316 120.683 18.9253C120.807 18.8159 120.907 18.6778 120.976 18.5211C121.036 18.378 121.091 18.2317 121.138 18.0826C121.181 17.9656 121.219 17.8484 121.251 17.7308C121.306 17.5743 121.388 17.431 121.494 17.3094C121.581 16.7832 121.711 16.2663 121.883 15.765C122.033 15.3437 122.195 14.9223 122.369 14.5009C122.52 14.1259 122.672 13.7338 122.823 13.3245C122.991 12.8603 123.132 12.3853 123.245 11.9021C123.331 11.8551 123.439 11.7264 123.569 11.516C123.655 10.9078 123.596 10.4105 123.393 10.0241C123.183 9.63117 122.938 9.26087 122.663 8.91822L122.112 8.39103C121.679 8.39103 121.155 8.27981 120.539 8.05737C119.987 7.86429 119.451 7.6236 118.934 7.3376C118.857 7.33643 118.781 7.34833 118.707 7.37288C118.652 7.3928 118.598 7.41635 118.545 7.44342C118.382 7.51078 118.229 7.60534 118.092 7.7237C117.767 9.12891 117.405 10.4515 117.006 11.6915C116.878 12.088 116.748 12.4865 116.617 12.8869C116.529 12.8049 116.441 12.723 116.353 12.64C116.241 12.5322 116.147 12.4029 116.078 12.2587L115.754 12.0127C115.496 11.9634 115.237 11.9281 114.976 11.9069C114.695 11.884 114.403 11.8726 114.101 11.8726C113.38 11.8744 112.66 11.9212 111.944 12.0127C111.199 12.1062 110.458 12.2113 109.723 12.3283C109.225 12.423 108.734 12.4992 108.249 12.5571C107.763 12.6149 107.282 12.6673 106.806 12.7144C106.679 12.5814 106.543 12.4584 106.4 12.3464C106.238 12.2193 105.963 12.1665 105.574 12.1881L105.25 12.3636C105.162 12.5542 105.074 12.7449 104.986 12.9603C104.51 13.008 104.051 13.055 103.608 13.1014L102.295 13.2416C101.538 13.3121 100.804 13.3757 100.094 13.4322C99.3838 13.4888 98.6813 13.518 97.9865 13.5199H97.0781L96.6564 13.4847L96.5596 14.0109C96.5156 14.0815 96.4628 14.1634 96.3976 14.2569C96.322 14.3831 96.2774 14.5281 96.2682 14.6782C96.262 15.0044 96.3 15.3297 96.3809 15.644C96.4566 15.9128 96.5376 16.1654 96.6248 16.399C96.6682 16.563 96.7113 16.7091 96.7541 16.8375C96.7981 16.9687 96.8305 17.104 96.851 17.2417L97.1432 17.6631C97.2295 17.686 97.4023 17.8849 97.6617 18.2599C97.8329 18.3673 98.019 18.4442 98.2127 18.4877C98.3732 18.5215 98.5361 18.539 98.6995 18.5402C98.7539 18.5395 98.8081 18.5338 98.8615 18.523C98.915 18.5127 98.9692 18.507 99.0235 18.5059H100.094C100.257 18.4279 100.434 18.3917 100.612 18.4C100.662 18.4006 100.71 18.4067 100.758 18.4181C100.817 18.4299 100.875 18.4357 100.935 18.4353H101.258C101.527 18.4384 101.792 18.3786 102.037 18.2599C102.143 18.2882 102.252 18.3 102.361 18.2952C102.47 18.2953 102.578 18.2893 102.685 18.2771C102.794 18.2656 102.912 18.2485 103.042 18.2246C103.15 18.2017 103.258 18.1836 103.367 18.1722C103.476 18.1608 103.593 18.1541 103.723 18.1541C103.679 18.2713 103.631 18.4058 103.577 18.5583C103.523 18.7108 103.464 18.8691 103.401 19.035C103.293 19.2933 103.191 19.544 103.093 19.79C102.995 20.0359 102.871 20.3458 102.721 20.7204L102.428 21.0713C102.302 21.5773 102.15 22.0756 101.975 22.5642C101.799 23.044 101.626 23.5178 101.456 23.9856C101.153 24.8518 100.861 25.7531 100.581 26.6892C100.3 27.6254 100.181 28.7726 100.224 30.1308C100.316 30.2827 100.386 30.448 100.435 30.6217C100.488 30.8124 100.538 31.0078 100.581 31.2185C100.623 31.4802 100.682 31.7384 100.757 31.9917C100.83 32.2457 100.945 32.4834 101.097 32.6933V33.1147L101.389 33.2901C101.565 33.3854 101.788 33.5008 102.069 33.6419C102.138 33.7654 102.24 33.8632 102.361 33.9221C102.469 33.9689 102.61 34.028 102.783 34.0976C102.829 34.2051 102.895 34.301 102.977 34.3788H103.367C104.144 34.3788 104.695 34.1563 105.02 33.7115C105.322 33.3142 105.419 32.7759 105.311 32.0965L105.02 31.7457C104.884 31.6761 104.754 31.5938 104.631 31.4997C104.527 31.454 104.429 31.3951 104.339 31.3243C104.324 31.2202 104.285 31.1218 104.226 31.0383C104.171 30.9678 104.112 30.8867 104.05 30.7924C104.033 30.5675 104.055 30.3411 104.115 30.125C104.136 30.0078 104.157 29.8848 104.179 29.7561C104.2 29.6342 104.2 29.5091 104.179 29.3872C104.287 29.3166 104.341 29.165 104.341 28.9305C104.345 28.8536 104.356 28.7773 104.374 28.7027C104.397 28.5886 104.43 28.477 104.471 28.369C104.595 28.1311 104.672 27.8683 104.699 27.5968C104.774 27.5415 104.831 27.4612 104.861 27.368C104.912 27.2397 104.99 27.1256 105.088 27.0343L105.217 26.6139C105.299 26.2752 105.396 25.9411 105.508 25.6129C105.646 25.2124 105.843 24.8389 106.092 24.5071C106.169 24.1375 106.283 23.7782 106.433 23.4355C106.593 23.08 106.772 22.7344 106.968 22.4002C107.098 21.9318 107.233 21.493 107.373 21.0837C107.513 20.6744 107.67 20.2705 107.843 19.872C108.019 19.4983 108.178 19.1093 108.33 18.7137C108.481 18.318 108.632 17.8557 108.783 17.3437C109.108 17.3209 109.469 17.2856 109.869 17.2389C110.27 17.1922 110.685 17.1331 111.117 17.0635C111.723 16.97 112.339 16.882 112.966 16.7994C113.547 16.7211 114.132 16.68 114.717 16.6764C114.847 16.6764 114.971 16.6831 115.09 16.6945C115.161 16.7012 115.246 16.706 115.344 16.7088C115.239 17.0266 115.133 17.3495 115.025 17.6774C114.777 18.4401 114.523 19.2301 114.264 20.0474C114.242 20.0951 114.22 20.1475 114.198 20.2056C114.172 20.2725 114.139 20.3364 114.101 20.3963C113.992 20.6543 113.884 20.9353 113.777 21.239C113.67 21.5059 113.658 21.8062 113.744 22.0818C113.513 22.3967 113.347 22.7623 113.258 23.1533C113.15 23.5861 113.042 24.025 112.934 24.4699C112.893 24.7186 112.838 24.9646 112.772 25.2068C112.659 25.7268 112.584 26.2551 112.545 26.7874C112.502 27.3429 112.512 27.9018 112.577 28.4548C112.641 29.0001 112.761 29.536 112.934 30.0526C113.098 30.5499 113.339 31.013 113.647 31.4216C113.679 31.5986 113.734 31.7699 113.809 31.9306C113.87 32.0552 113.947 32.1693 114.039 32.2691C114.077 32.3539 114.121 32.4361 114.168 32.515C114.242 32.6504 114.307 32.7912 114.363 32.9364C115.141 33.6393 116.168 33.9889 117.444 33.9851C118.315 33.9856 119.182 33.8573 120.021 33.6037C120.875 33.3463 121.67 33.0889 122.404 32.8315C122.509 32.7858 122.618 32.7504 122.728 32.7257C122.837 32.7028 123.021 32.6679 123.28 32.6208C123.604 32.6208 123.927 32.6031 124.248 32.5675C124.572 32.5322 124.896 32.4921 125.217 32.4445C125.518 32.3987 125.826 32.3638 126.14 32.3396C126.454 32.3167 126.762 32.3043 127.064 32.3043C127.793 32.2938 128.517 32.4229 129.204 32.6857C129.636 32.5487 130.084 32.4778 130.534 32.475C130.75 32.475 130.976 32.4632 131.214 32.4397C131.346 32.295 131.487 32.1602 131.636 32.0365C131.765 31.931 132.035 31.8315 132.446 31.7381L132.381 31.2814C132.469 31.1353 132.514 30.9638 132.511 30.7895C132.533 30.6942 132.457 30.5207 132.284 30.2633L132.001 28.4758Z" fill="#272137"/>
<path d="M141.806 17.257C141.728 17.0195 141.679 16.7717 141.661 16.5201C141.639 16.2512 141.628 15.9761 141.628 15.6945V14.9929C141.389 14.8737 141.194 14.6691 141.077 14.4132C140.967 14.1614 140.886 13.896 140.834 13.6229C140.78 13.3417 140.725 13.0614 140.672 12.7802C140.617 12.4971 140.5 12.2323 140.332 12.008C140.048 11.9989 139.765 12.0588 139.505 12.1834C139.287 12.2943 139.081 12.4298 138.889 12.5876C138.7 12.7441 138.522 12.9142 138.354 13.0967C138.186 13.2781 138.002 13.4412 137.805 13.5838C137.85 13.9756 137.789 14.3732 137.629 14.7278C137.506 15.0102 137.371 15.2857 137.224 15.5534C137.115 15.7879 137.077 15.9862 137.11 16.1502C137.139 16.3621 137.123 16.5785 137.062 16.7823C137.053 16.8365 137.03 16.8868 136.995 16.9272C136.961 16.9677 136.916 16.9964 136.867 17.0101C136.822 17.0196 136.78 17.0424 136.745 17.0761C136.711 17.1097 136.686 17.1528 136.673 17.2008C136.63 17.3768 136.647 17.5635 136.721 17.727C136.797 17.9149 136.814 18.1244 136.769 18.3238C136.601 19.266 136.368 20.1933 136.072 21.098C135.775 22.0115 135.553 22.9516 135.408 23.9074C135.363 24.2743 135.336 24.6434 135.327 25.0133C135.316 25.3991 135.306 25.7804 135.295 26.1573C135.284 26.5342 135.263 26.9028 135.23 27.2632C135.204 27.5947 135.133 27.9202 135.019 28.2289C135.105 28.6274 135.208 29.0837 135.327 29.5979C135.446 30.112 135.581 30.6329 135.732 31.1604C135.883 31.6879 136.045 32.1963 136.218 32.6857C136.364 33.1206 136.56 33.5336 136.802 33.9145C137.209 33.9859 137.622 34.0095 138.034 33.9851C138.436 33.9699 138.83 33.8558 139.185 33.6514C139.524 33.4483 139.796 33.1353 139.963 32.7562C140.146 32.359 140.184 31.8089 140.077 31.106C139.883 29.9835 139.813 28.8402 139.866 27.6998C139.92 26.5724 140.056 25.4514 140.271 24.3469C140.489 23.2249 140.765 22.117 141.098 21.0284C141.433 19.9289 141.795 18.8167 142.184 17.6917C142.095 17.6549 142.014 17.5966 141.949 17.5213C141.884 17.446 141.835 17.3557 141.806 17.257Z" fill="#272137"/>
<path d="M167.533 18.6794C167.966 18.7264 168.295 18.6912 168.522 18.5736C168.642 18.516 168.772 18.4862 168.903 18.4862C169.034 18.4862 169.164 18.516 169.284 18.5736C169.944 18.1276 170.675 17.8182 171.44 17.6613C172.164 17.5202 172.871 17.3854 173.563 17.2571C174.229 17.1369 174.877 16.9245 175.493 16.625C176.087 16.3326 176.611 15.7886 177.065 14.9929C177.029 14.8735 177.007 14.7495 177 14.624C176.999 14.5473 177.005 14.4708 177.016 14.3952C177.027 14.3256 177.038 14.2493 177.049 14.1673C177.058 14.0441 177.052 13.9201 177.032 13.7984C176.635 13.6201 176.26 13.3902 175.914 13.1139C175.578 12.8447 175.297 12.5041 175.087 12.1129C175.108 12.3233 175.06 12.3868 174.942 12.3036C174.822 12.2216 174.72 12.2864 174.634 12.4942C174.458 12.4942 174.277 12.3894 174.083 12.1787C173.174 12.3693 172.363 12.5098 171.65 12.6C170.937 12.6903 170.251 12.7898 169.591 12.8984C168.932 13.0039 168.262 13.1387 167.582 13.3026C166.902 13.4666 166.129 13.7005 165.264 14.0043C164.788 14.1212 164.334 14.2267 163.902 14.3208C163.685 14.3678 163.476 14.4206 163.276 14.4791C163.201 14.2758 163.106 14.0816 162.994 13.8994C162.93 13.8598 162.871 13.8124 162.818 13.7583C162.739 13.6856 162.669 13.6034 162.607 13.5133C162.477 13.3722 162.337 13.2318 162.186 13.092C162.025 12.9446 161.851 12.8149 161.666 12.7049C161.408 12.0738 160.791 11.7579 159.818 11.7573C159.71 11.7571 159.601 11.7632 159.494 11.7754C159.385 11.787 159.276 11.7809 159.169 11.7573L158.618 11.7926C157.617 11.8947 156.621 12.0538 155.636 12.2692C154.75 12.4688 154.036 12.6502 153.496 12.8136C153.149 12.9305 152.847 13.0357 152.588 13.1291C152.561 13.1669 152.527 13.1976 152.488 13.2189C152.448 13.2402 152.405 13.2516 152.361 13.2521C152.253 13.2645 152.134 13.2817 152.009 13.3055C151.858 13.3284 151.695 13.3576 151.522 13.3932C151.347 13.4298 151.181 13.5076 151.036 13.6211C150.603 13.738 150.176 13.8727 149.755 14.0253C149.335 14.1778 148.919 14.324 148.507 14.4638C148.075 14.6278 147.648 14.7867 147.226 14.9405C146.805 15.0943 146.378 15.229 145.946 15.3447L145.654 15.6602C145.581 15.8095 145.494 15.9506 145.395 16.0816L145.33 16.4334C145.286 16.5268 145.286 16.7022 145.33 16.9596C145.398 17.0509 145.443 17.1596 145.46 17.2752C145.461 17.3078 145.455 17.3403 145.444 17.3706C145.433 17.4009 145.416 17.4285 145.395 17.4515L145.233 17.8024L145.557 18.0483C145.764 18.2549 145.93 18.5058 146.043 18.7852C146.131 18.9263 146.219 19.0712 146.319 19.2247C146.471 19.4342 146.652 19.6177 146.854 19.7691C146.96 19.8023 147.068 19.8256 147.178 19.8387C147.354 19.864 147.521 19.9364 147.664 20.0494C147.555 20.3136 147.51 20.6038 147.535 20.8921C147.429 21.0957 147.337 21.3069 147.259 21.5242C147.183 21.7352 147.113 21.9458 147.049 22.1562C147.009 22.3288 146.96 22.4988 146.903 22.6653C146.875 22.741 146.834 22.8097 146.781 22.8672C146.728 22.9246 146.664 22.9695 146.594 22.999C146.38 22.8649 146.183 22.6994 146.011 22.507L145.589 22.3316C145.354 22.4022 145.111 22.4842 144.86 22.5776C144.608 22.6732 144.368 22.8029 144.146 22.9637C143.911 23.1374 143.707 23.3576 143.547 23.6129C143.356 23.9367 143.234 24.3029 143.19 24.6844C143.248 25.2977 143.412 25.8934 143.676 26.4395C143.949 27.0396 144.389 27.531 144.935 27.8438C144.891 27.9839 144.847 28.1298 144.805 28.2823C144.763 28.4348 144.717 28.5807 144.675 28.7208C144.546 29.1651 144.438 29.6163 144.351 30.0727C144.264 30.5296 144.285 31.0975 144.416 31.7763C144.564 32.0852 144.738 32.3787 144.935 32.6533C145.017 32.7652 145.093 32.8827 145.161 33.0051C145.224 33.1173 145.278 33.2346 145.324 33.3559L145.676 33.6419C145.856 33.6741 146.03 33.7332 146.195 33.8173C146.339 33.8841 146.485 33.9426 146.635 33.9927C146.842 34.0441 147.057 34.056 147.268 34.028C147.873 33.723 148.24 33.1729 148.37 32.3778C148.461 31.9759 148.415 31.5521 148.24 31.1842C148.239 31.119 148.25 31.0543 148.272 30.9936C148.298 30.9264 148.331 30.8625 148.37 30.8029C148.414 30.6827 148.452 30.5598 148.483 30.4349C148.515 30.3078 148.618 30.1264 148.792 29.8906V29.3634C148.956 29.121 149.077 28.847 149.148 28.5559C149.191 28.4396 149.236 28.3281 149.277 28.2222C149.33 28.1046 149.408 28.0024 149.505 27.9239C149.655 27.8771 149.823 27.8285 150.007 27.7656C150.181 27.7094 150.361 27.6798 150.542 27.6779H150.996C151.332 27.534 151.679 27.4226 152.034 27.3452C152.4 27.2632 152.779 27.1996 153.168 27.1545L154.06 27.0144C154.353 26.9673 154.715 26.8971 155.145 26.8037C155.309 26.8046 155.472 26.7867 155.632 26.7503C155.783 26.716 155.934 26.6753 156.085 26.6283C156.395 26.5073 156.725 26.4592 157.054 26.4872L157.508 26.347L158.837 24.3107C158.829 24.1247 158.779 23.9436 158.691 23.7835C158.63 23.6815 158.546 23.5971 158.448 23.5376L158.286 23.222C158.231 23.1808 158.172 23.1453 158.11 23.1162C158.056 23.0933 157.965 23.0466 157.835 22.9761L157.673 22.4842L157.937 22.2039H156.899C156.352 22.2031 155.805 22.2381 155.262 22.3087C154.733 22.3793 154.22 22.4613 153.722 22.5547C153.354 22.6252 152.987 22.6837 152.62 22.7301C152.22 22.7722 151.818 22.6996 151.453 22.5194C151.408 22.3643 151.408 22.1979 151.453 22.0428C151.535 21.8301 151.632 21.6248 151.744 21.4288C151.731 20.7914 151.926 20.1694 152.295 19.6728C152.316 19.5555 152.333 19.4507 152.344 19.3563C152.355 19.2618 152.371 19.1682 152.393 19.076C152.414 18.9359 152.436 18.79 152.457 18.6375C152.508 18.4161 152.598 18.2073 152.721 18.0226L153.305 17.7061C153.899 17.4705 154.506 17.2712 155.121 17.1093C155.811 16.9224 156.53 16.7635 157.276 16.6326C158.023 16.5017 158.752 16.4022 159.465 16.3342C160.002 16.2815 160.489 16.2497 160.928 16.2389C161.014 16.5766 161.078 16.9207 161.118 17.2685C161.161 17.6549 161.215 18.0296 161.28 18.3925C161.348 18.7656 161.451 19.1301 161.588 19.4802C161.741 19.8617 161.967 20.2031 162.253 20.4812C162.101 20.9261 161.945 21.33 161.783 21.6929C161.621 22.0558 161.459 22.4127 161.297 22.7635C161.135 23.1143 160.977 23.4775 160.827 23.8522C160.676 24.2268 160.534 24.6244 160.405 25.0458C160.254 25.0229 160.166 25.0639 160.141 25.1687C160.131 25.2186 160.107 25.2638 160.072 25.2981C160.037 25.3323 159.993 25.3537 159.946 25.3594C159.979 25.5187 159.977 25.6841 159.941 25.8425C159.904 26.0009 159.834 26.1479 159.736 26.2717C159.532 26.548 159.393 26.8734 159.33 27.2203C159.264 27.5783 159.248 27.9449 159.282 28.308C159.314 28.7065 159.363 29.1104 159.428 29.5197C159.493 29.929 159.558 30.3212 159.622 30.6961C159.683 31.0327 159.726 31.3726 159.752 31.7143C159.987 31.8319 160.133 32.0016 160.192 32.2234C160.247 32.45 160.366 32.6525 160.532 32.803C160.971 33.2647 161.519 33.5866 162.116 33.7334C162.785 33.9117 163.47 34.0117 164.158 34.0318C164.862 34.0552 165.567 34.0198 166.266 33.926C166.958 33.8326 167.552 33.7274 168.049 33.6105C168.204 33.6067 168.359 33.6365 168.503 33.6982C168.66 33.7578 168.83 33.7638 168.989 33.7153C169.789 33.5526 170.518 33.4122 171.178 33.294C171.79 33.1903 172.392 33.026 172.977 32.803C173.509 32.5976 173.999 32.2816 174.42 31.8725C174.841 31.4626 175.214 30.8715 175.539 30.0993C175.409 30.1232 175.317 30.0936 175.263 30.0116C175.206 29.9223 175.167 29.8205 175.149 29.7132C175.127 29.596 175.101 29.473 175.068 29.3443C175.038 29.2183 174.977 29.1032 174.892 29.0106C174.807 29.0256 174.719 29.0208 174.636 28.9967C174.552 28.9726 174.474 28.9296 174.406 28.8705C174.272 28.7477 174.147 28.6125 174.033 28.4663C173.916 28.315 173.792 28.1514 173.661 27.9753C173.544 27.8095 173.387 27.6818 173.207 27.6064C172.675 27.8026 172.127 27.9378 171.569 28.0096C171.031 28.0732 170.509 28.2459 170.03 28.5187C169.457 28.4918 168.882 28.5097 168.312 28.5721C167.857 28.6306 167.414 28.6891 166.982 28.7475C166.549 28.8057 166.091 28.8429 165.604 28.8705C164.99 28.8849 164.377 28.8377 163.772 28.7294C163.981 28.1144 164.23 27.5161 164.518 26.9391C164.793 26.3869 165.107 25.8587 165.458 25.3594C165.746 25.457 166.048 25.4986 166.349 25.4824C166.643 25.4625 166.937 25.5164 167.209 25.6397C167.385 25.5234 167.628 25.4884 167.938 25.5348C168.249 25.5812 168.492 25.5459 168.668 25.429C168.727 25.4865 168.8 25.5234 168.878 25.5348H169.121C169.596 25.5631 170.071 25.5097 170.53 25.3766C170.944 25.2506 171.346 25.0801 171.729 24.8675C172.107 24.6569 172.47 24.4163 172.815 24.1477C173.161 23.8789 173.507 23.6154 173.853 23.3574C173.937 23.1416 173.965 22.9048 173.934 22.6729C173.905 22.4597 173.845 22.2526 173.758 22.059C173.561 22.0862 173.362 22.043 173.191 21.936C173.019 21.8226 172.862 21.6869 172.721 21.5318C172.569 21.3688 172.417 21.1981 172.267 21.0227C172.129 20.8607 171.977 20.7138 171.812 20.5842C171.791 20.4888 171.802 20.4259 171.845 20.3935C171.888 20.3611 171.899 20.2829 171.877 20.1657C170.991 20.1885 170.089 20.247 169.171 20.3411C168.336 20.4334 167.495 20.4452 166.657 20.3763C166.588 20.2054 166.56 20.018 166.576 19.832C166.587 19.6086 166.548 19.3857 166.463 19.1818C166.657 19.1122 166.852 19.0474 167.047 18.9912C167.231 18.9356 167.399 18.828 167.533 18.6794Z" fill="#272137"/>
</svg>
